<svg width="507" height="332" viewBox="0 0 507 332" fill="none" xmlns="http://www.w3.org/2000/svg">
<path d="M483.377 8.6081C494.372 16.5735 500.71 27.6954 504.684 40.5689C504.684 44.0846 504.684 47.6003 504.684 51.2225C497.653 51.2225 490.621 51.2225 483.377 51.2225C482.333 47.4871 482.333 47.4871 481.268 43.6762C478.128 34.2864 473.777 30.7712 465.288 25.9202C452.806 22.5917 441.306 23.5168 430.109 29.9153C424.795 35.5831 423.149 40.4495 422.562 48.2262C423.069 55.7017 423.825 59.4162 428.333 65.4273C437.139 69.5264 445.814 71.0414 455.325 72.5579C473.164 75.4229 489.328 78.9364 500.925 94.038C507.115 104.492 508.189 117.032 505.301 128.704C500.559 143.623 493.402 152.922 479.493 160.2C465.145 166.921 447.261 167.039 431.898 163.71C417.697 158.534 407.138 149.806 400.034 136.451C396.763 129.273 395.109 122.995 394.597 115.144C401.628 115.144 408.659 115.144 415.904 115.144C417.149 117.927 418.394 120.711 419.677 123.578C423.863 131.987 427.084 135.827 435.435 140.003C445.851 143.474 457.753 143.137 468.173 139.67C475.854 135.762 479.567 131.641 483.377 124.022C483.86 117.62 483.805 112.77 481.601 106.71C473.141 97.1923 459.067 96.4209 447.088 94.9467C431.457 92.7268 420.727 89.3516 409.023 78.4114C402.011 67.4809 398.529 55.3563 399.923 42.3445C402.631 30.0811 405.834 18.5599 416.507 10.9871C436.118 -1.19375 462.969 -4.08995 483.377 8.6081Z" fill="#1373E8"/>
<path fill-rule="evenodd" clip-rule="evenodd" d="M79.716 10.6574C66.8385 3.80341 50.313 3.80341 0.147003 3.80341V165.383C6.43761 165.383 12.3886 165.51 18.0688 165.632C47.8861 166.269 70.2438 166.747 95.1139 147.821C110.432 133.216 121.007 113.299 123.281 92.1742C123.972 67.0235 116.627 45.3939 99.6083 26.5325C91.4876 19.0451 86.042 14.0243 79.716 10.6574ZM69.4056 26.6228C61.2358 22.8125 51.2888 22.8125 23.5028 22.8125V141.778C25.7537 141.778 27.9212 141.789 30.0152 141.801C52.2505 141.92 66.1958 141.995 83.679 127.587C96.7949 115.102 102.422 99.9113 103.96 82.0731C102.311 64.2706 96.8567 50.3862 84.1992 37.2115C77.9641 32.0568 73.9612 28.7475 69.4056 26.6228Z" fill="#086DE5"/>
<path d="M146.017 1.50571C175.314 1.50571 204.612 1.50571 234.797 1.50571C234.797 8.53708 234.797 15.5685 234.797 22.8129C212.531 22.8129 190.265 22.8129 167.324 22.8129C167.324 39.2195 167.324 55.626 167.324 72.5297C182.559 72.5297 197.794 72.5297 213.49 72.5297C213.49 78.9751 213.49 85.4206 213.49 92.0613C198.255 92.0613 183.021 92.0613 167.324 92.0613C167.324 108.468 167.324 124.874 167.324 141.778C189.59 141.778 211.856 141.778 234.797 141.778C234.797 148.809 234.797 155.841 234.797 163.085C205.5 163.085 176.202 163.085 146.017 163.085C146.017 109.764 146.017 56.4428 146.017 1.50571Z" fill="#086DE5"/>
<path d="M252.551 1.50562C260.169 1.50562 267.786 1.50562 275.634 1.50562C276.609 4.33379 277.585 7.16196 278.59 10.0758C281.849 19.5232 285.109 28.9701 288.37 38.4167C290.343 44.1323 292.316 49.8481 294.287 55.5643C296.565 62.1678 298.844 68.7706 301.124 75.3733C301.816 77.3812 302.508 79.389 303.221 81.4577C304.233 84.3877 304.233 84.3877 305.266 87.3769C306.256 90.2452 306.256 90.2452 307.267 93.1715C308.771 97.4554 310.298 101.724 311.859 105.987C312.476 107.681 312.476 107.681 313.105 109.409C314.262 112.575 315.429 115.738 316.596 118.9C318.248 124.022 318.248 124.022 318.248 129.349C319.42 129.349 320.592 129.349 321.8 129.349C321.979 128.225 322.159 127.101 322.344 125.942C324.038 118.413 326.563 111.241 329.075 103.949C329.902 101.529 329.902 101.529 330.745 99.0603C332.53 93.84 334.322 88.6225 336.115 83.4052C337.334 79.8454 338.553 76.2856 339.771 72.7256C347.91 48.9594 356.096 25.2098 364.414 1.50562C372.031 1.50562 379.649 1.50562 387.497 1.50562C385.499 13.4895 385.499 13.4895 383.469 19.2222C383.015 20.5175 382.562 21.8129 382.094 23.1476C381.352 25.2238 381.352 25.2238 380.596 27.342C379.813 29.5679 379.813 29.5679 379.014 31.8388C377.299 36.712 375.573 41.5812 373.847 46.4505C371.426 53.3177 369.012 60.1873 366.599 67.0572C365.981 68.8147 365.363 70.5723 364.726 72.3831C360.368 84.7948 356.086 97.2307 351.853 109.685C350.994 112.213 350.994 112.213 350.117 114.791C347.896 121.332 345.678 127.873 343.468 134.417C341.951 138.911 340.428 143.404 338.904 147.896C338.454 149.236 338.003 150.577 337.54 151.959C334.43 161.109 334.43 161.109 332.453 163.085C328.275 163.214 324.093 163.234 319.913 163.196C316.476 163.172 316.476 163.172 312.97 163.148C311.196 163.127 309.422 163.106 307.595 163.085C302.945 151.728 298.639 140.319 294.722 128.69C293.936 126.376 293.936 126.376 293.134 124.016C291.439 119.026 289.751 114.033 288.063 109.04C286.293 103.818 284.521 98.5964 282.749 93.3748C281.551 89.8448 280.353 86.3146 279.156 82.7843C275.26 71.3024 271.331 59.8326 267.373 48.3717C266.873 46.9206 266.372 45.4694 265.857 43.9743C263.002 35.698 263.002 35.698 260.137 27.4253C258.845 23.7023 257.56 19.9771 256.276 16.2514C255.553 14.1637 254.83 12.076 254.084 9.92498C252.551 5.05682 252.551 5.05682 252.551 1.50562Z" fill="#0A6DE6"/>
<path d="M426.557 177.287C452.924 177.287 479.292 177.287 506.459 177.287C506.459 184.904 506.459 192.522 506.459 200.37C487.708 200.37 468.958 200.37 449.64 200.37C449.64 214.432 449.64 228.495 449.64 242.984C461.359 242.984 473.078 242.984 485.152 242.984C485.152 250.601 485.152 258.219 485.152 266.067C473.433 266.067 461.714 266.067 449.64 266.067C449.64 287.161 449.64 308.255 449.64 329.989C442.022 329.989 434.405 329.989 426.557 329.989C426.557 279.597 426.557 229.205 426.557 177.287Z" fill="#1D76E8"/>
<path d="M330.676 177.287C357.044 177.287 383.412 177.287 410.578 177.287C410.578 184.904 410.578 192.522 410.578 200.37C391.828 200.37 373.078 200.37 353.759 200.37C353.759 214.432 353.759 228.495 353.759 242.984C365.478 242.984 377.197 242.984 389.271 242.984C389.271 250.601 389.271 258.219 389.271 266.067C377.552 266.067 365.833 266.067 353.759 266.067C353.759 287.161 353.759 308.255 353.759 329.989C346.142 329.989 338.524 329.989 330.676 329.989C330.676 279.597 330.676 229.205 330.676 177.287Z" fill="#1570E4"/>
<path d="M108.73 177.287C139.785 177.287 170.841 177.287 202.837 177.287C202.837 184.904 202.837 192.522 202.837 200.37C191.118 200.37 179.399 200.37 167.325 200.37C167.325 243.73 167.325 287.09 167.325 331.764C159.708 331.764 152.09 331.764 144.242 331.764C144.242 288.404 144.242 245.044 144.242 200.37C132.523 200.37 120.804 200.37 108.73 200.37C108.73 192.752 108.73 185.135 108.73 177.287Z" fill="#1271E6"/>
<path d="M43.0349 177.287C43.6462 184.487 43.9932 191.416 43.0349 198.594C37.93 203.144 37.93 203.144 32.3813 205.697C28.6589 211.28 28.181 214.86 27.6648 221.441C29.5802 227.666 34.1615 230.796 39.4837 234.106C44.8404 236.489 50.3356 238.29 55.908 240.099C71.0381 245.365 86.2251 250.96 95.526 264.846C100.627 277.932 101.048 289.343 96.4416 302.661C90.3688 316.127 81.4562 324.918 67.6713 330.432C62.5665 331.764 62.5665 331.764 55.4641 331.764C54.6288 324.49 54.1963 317.694 55.4641 310.457C58.833 306.973 61.7837 305.371 66.2148 303.466C70.6074 301.066 71.5336 299.138 73.2201 294.477C74.1014 290.663 74.1014 290.663 74.2188 286.708C74.331 285.413 74.4432 284.117 74.5587 282.783C72.3005 275.552 67.0185 271.862 60.7909 267.843C55.0103 265.239 49.0982 263.35 43.0349 261.517C29.9308 257.498 18.4227 253.713 9.69382 242.471C3.32948 229.656 1.11372 218.333 5.4837 204.441C11.1713 191.538 19.523 184.604 31.9374 178.397C35.9325 177.287 35.9325 177.287 43.0349 177.287Z" fill="#1C7AEA"/>
<path d="M289.838 177.287C297.456 177.287 305.073 177.287 312.921 177.287C313.082 193.016 313.212 208.744 313.289 224.473C313.326 231.778 313.376 239.083 313.457 246.387C313.535 253.445 313.577 260.501 313.595 267.559C313.608 270.244 313.634 272.928 313.672 275.612C313.901 292.205 313.65 304.712 302.517 317.927C292.539 326.4 283.82 331.764 270.307 331.764C270.307 324.147 270.307 316.529 270.307 308.681C273.89 307.063 277.474 305.445 281.058 303.826C285.349 301.034 286.223 299.245 288.063 294.477C288.644 289.022 288.644 289.022 288.629 282.913C288.647 281.769 288.665 280.624 288.683 279.446C288.738 275.68 288.768 271.914 288.798 268.148C288.831 265.53 288.866 262.913 288.902 260.296C288.993 253.419 289.064 246.542 289.13 239.664C289.201 232.642 289.292 225.62 289.381 218.597C289.552 204.827 289.7 191.057 289.838 177.287Z" fill="#1571E4"/>
<path d="M215.264 177.287C222.882 177.287 230.499 177.287 238.347 177.287C238.364 180.79 238.38 184.294 238.397 187.904C238.461 199.491 238.556 211.079 238.674 222.666C238.744 229.69 238.801 236.714 238.828 243.738C238.855 250.52 238.916 257.3 239.001 264.081C239.027 266.666 239.041 269.25 239.043 271.835C239.047 275.461 239.095 279.085 239.153 282.711C239.169 284.773 239.185 286.835 239.201 288.96C240.32 295.659 242.495 298.558 247.225 303.355C252.759 306.568 252.759 306.568 257.879 308.681C257.879 316.299 257.879 323.916 257.879 331.764C241.927 330.435 231.869 324.627 221.382 312.579C215.771 304.057 214.824 295.763 214.861 285.735C214.861 284.555 214.86 283.376 214.86 282.161C214.862 278.299 214.89 274.437 214.918 270.575C214.924 267.883 214.929 265.192 214.933 262.5C214.946 255.442 214.981 248.384 215.02 241.325C215.057 234.112 215.073 226.899 215.091 219.686C215.129 205.553 215.191 191.42 215.264 177.287Z" fill="#1471E6"/>
<path d="M25.2789 290.923C26.3776 293.34 26.3776 293.34 27.4984 295.806C30.7354 301.818 31.5616 302.357 37.1532 305.35C40.4547 307.438 40.4547 307.438 43.0349 310.455C44.1309 317.664 43.762 324.526 43.0349 331.762C30.5759 331.309 22.091 327.842 12.8497 319.333C2.19611 305.245 2.19611 305.245 2.19611 296.25C5.03557 295.009 7.88611 293.793 10.7412 292.588C12.3274 291.908 13.9135 291.228 15.5478 290.528C19.9521 289.148 19.9521 289.148 25.2789 290.923Z" fill="#2B86F2"/>
<path d="M55.4631 177.287C66.1799 177.957 73.8905 180.878 82.0971 187.941C92.7507 200.833 92.7507 200.833 92.7507 209.248C85.7193 211.592 78.688 213.935 71.4435 216.35C66.1167 207.472 66.1167 207.472 66.1167 203.921C62.601 202.749 59.0853 201.577 55.4631 200.37C55.4631 192.752 55.4631 185.135 55.4631 177.287Z" fill="#1273E6"/>
</svg>
