<svg xmlns="http://www.w3.org/2000/svg" xmlns:xlink="http://www.w3.org/1999/xlink" version="1.1" width="1000" height="1000" viewBox="0 0 1000 1000" xml:space="preserve">
<desc>Created with Fabric.js 3.5.0</desc>
<defs>
</defs>
<rect x="0" y="0" width="100%" height="100%" fill="#ffffff"/>
<g transform="matrix(1.7756 0 0 1.7756 314.7852 442.5283)" id="svg">
<path style="stroke: none; stroke-width: 1; stroke-dasharray: none; stroke-linecap: butt; stroke-dashoffset: 0; stroke-linejoin: miter; stroke-miterlimit: 4; is-custom-font: none; font-file-url: none; fill: rgb(12,110,231); fill-rule: nonzero; opacity: 1;" transform=" translate(-34.6863, -45.6311)" d="M 0 0 C 42.13191432 0 42.13191432 0 56.015625 12.80078125 C 65.60046319 23.42334799 69.73688634 35.60494074 69.34765625 49.76953125 C 68.06731182 61.66666429 62.11125465 72.88374557 53.484375 81.109375 C 36.80952577 93.79904014 22.14002392 91 0 91 C 0 60.97 0 30.94 0 0 Z" stroke-linecap="round"/>
</g>
<g transform="matrix(1.7756 0 0 1.7756 701.7123 443.1063)" id="svg">
<path style="stroke: none; stroke-width: 1; stroke-dasharray: none; stroke-linecap: butt; stroke-dashoffset: 0; stroke-linejoin: miter; stroke-miterlimit: 4; is-custom-font: none; font-file-url: none; fill: rgb(19,115,232); fill-rule: nonzero; opacity: 1;" transform=" translate(18.3963, -41.9567)" d="M 0 0 C 6.19269522 4.48604693 9.76202247 10.74977786 12 18 C 12 19.98 12 21.96 12 24 C 8.04 24 4.08 24 0 24 C -0.5878125 21.89625 -0.5878125 21.89625 -1.1875 19.75 C -2.95578718 14.46174209 -5.40644149 12.48203344 -10.1875 9.75 C -17.21713204 7.87543146 -23.69375224 8.39642985 -30 12 C -32.99252009 15.19202143 -33.91945502 17.93277903 -34.25 22.3125 C -33.96456799 26.52262216 -33.53904962 28.6146005 -31 32 C -26.04085991 34.30856521 -21.15506574 35.16178091 -15.79858398 36.01586914 C -5.75185805 37.62944419 3.35177226 39.60816952 9.8828125 48.11328125 C 13.36893058 54.00067646 13.97399366 61.06319928 12.34765625 67.63671875 C 9.67675918 76.0391546 5.64588643 81.27596539 -2.1875 85.375 C -10.26795386 89.16014132 -20.34026062 89.22652315 -28.9921875 87.3515625 C -36.98997635 84.43648058 -42.93692154 79.52108751 -46.9375 72 C -48.77971969 67.95700779 -49.71162708 64.42171808 -50 60 C -46.04 60 -42.08 60 -38 60 C -37.29875 61.5675 -36.5975 63.135 -35.875 64.75 C -33.51722655 69.48564155 -31.70328317 71.64835842 -27 74 C -21.13419233 75.95526922 -14.43114791 75.76503887 -8.5625 73.8125 C -4.23649988 71.61155257 -2.14554943 69.29109886 0 65 C 0.27213555 61.394204 0.24111304 58.66306085 -1 55.25 C -5.76469791 49.88971485 -13.69091479 49.4552969 -20.4375 48.625 C -29.24041726 47.37482641 -35.28369513 45.47393716 -41.875 39.3125 C -45.82409893 33.15655167 -47.7851537 26.32810118 -47 19 C -45.47501882 12.09338234 -43.67115712 5.6047442 -37.66015625 1.33984375 C -26.61580787 -5.52030216 -11.49334735 -7.15141613 0 0 Z" stroke-linecap="round"/>
</g>
<g transform="matrix(1.7756 0 0 1.7756 441.4071 442.2954)" id="svg">
<path style="stroke: none; stroke-width: 1; stroke-dasharray: none; stroke-linecap: butt; stroke-dashoffset: 0; stroke-linejoin: miter; stroke-miterlimit: 4; is-custom-font: none; font-file-url: none; fill: rgb(8,109,229); fill-rule: nonzero; opacity: 1;" transform=" translate(-25, -45.5)" d="M 0 0 C 16.5 0 33 0 50 0 C 50 3.96 50 7.92 50 12 C 37.46 12 24.92 12 12 12 C 12 21.24 12 30.48 12 40 C 20.58 40 29.16 40 38 40 C 38 43.63 38 47.26 38 51 C 29.42 51 20.84 51 12 51 C 12 60.24 12 69.48 12 79 C 24.54 79 37.08 79 50 79 C 50 82.96 50 86.92 50 91 C 33.5 91 17 91 0 91 C 0 60.97 0 30.94 0 0 Z" stroke-linecap="round"/>
</g>
<g transform="matrix(1.7756 0 0 1.7756 571.024 442.3594)" id="svg">
<path style="stroke: none; stroke-width: 1; stroke-dasharray: none; stroke-linecap: butt; stroke-dashoffset: 0; stroke-linejoin: miter; stroke-miterlimit: 4; is-custom-font: none; font-file-url: none; fill: rgb(10,109,230); fill-rule: nonzero; opacity: 1;" transform=" translate(-38, -45.5361)" d="M 0 0 C 4.29 0 8.58 0 13 0 C 13.54938232 1.59279785 14.09876465 3.1855957 14.66479492 4.82666016 C 16.50017596 10.14730898 18.33626587 15.46771284 20.17281628 20.78795815 C 21.28398188 24.00694002 22.39488129 27.2260132 23.50512695 30.4453125 C 24.78786292 34.16430839 26.07157916 37.88296473 27.35546875 41.6015625 C 27.74526413 42.73236237 28.13505951 43.86316223 28.53666687 45.02822876 C 29.10669182 46.67835464 29.10669182 46.67835464 29.68823242 48.36181641 C 30.24624039 49.97724335 30.24624039 49.97724335 30.81552124 51.62530518 C 31.66232592 54.03793382 32.52238075 56.44221285 33.40151978 58.84295654 C 33.74902141 59.796848 33.74902141 59.796848 34.10354328 60.77000999 C 34.75498893 62.55328726 35.41210068 64.33449167 36.0695343 66.11557007 C 37 69 37 69 37 72 C 37.66 72 38.32 72 39 72 C 39.10111084 71.36690918 39.20222168 70.73381836 39.30639648 70.08154297 C 40.26090771 65.84083875 41.68276138 61.80200762 43.09765625 57.6953125 C 43.56315384 56.33232529 43.56315384 56.33232529 44.03805542 54.94180298 C 45.04309389 52.00179374 46.05269168 49.06337397 47.0625 46.125 C 47.74899506 44.12019106 48.43527429 42.1153082 49.12133789 40.11035156 C 53.7050315 26.72549948 58.31554132 13.34995891 63 0 C 67.29 0 71.58 0 76 0 C 74.87513119 6.74921283 74.87513119 6.74921283 73.73168945 9.9777832 C 73.47614792 10.70732712 73.22060638 11.43687103 72.95732117 12.18852234 C 72.53952141 13.3578405 72.53952141 13.3578405 72.11328125 14.55078125 C 71.67245964 15.80439201 71.67245964 15.80439201 71.22273254 17.08332825 C 70.25691707 19.8279084 69.28464374 22.57015572 68.3125 25.3125 C 66.9491838 29.1800631 65.58957785 33.04892548 64.23046875 36.91796875 C 63.88234131 37.90780762 63.53421387 38.89764648 63.17553711 39.91748047 C 60.72141146 46.90764365 58.30977338 53.91140671 55.92578125 60.92578125 C 55.44190697 62.3491555 55.44190697 62.3491555 54.94825745 63.80128479 C 53.69727732 67.48473624 52.4478586 71.16869915 51.20352173 74.85440063 C 50.34893727 77.38549658 49.49107464 79.91546178 48.6328125 82.4453125 C 48.37933548 83.20052689 48.12585846 83.95574127 47.86470032 84.73384094 C 46.11318024 89.88681976 46.11318024 89.88681976 45 91 C 42.64686445 91.07271741 40.29166332 91.08370868 37.9375 91.0625 C 36.00197266 91.04896484 36.00197266 91.04896484 34.02734375 91.03515625 C 33.02832031 91.02355469 32.02929688 91.01195312 31 91 C 28.38113359 84.60364362 25.95609664 78.17850176 23.75 71.62890625 C 23.30727501 70.3258831 23.30727501 70.3258831 22.85560608 68.99653625 C 21.90122724 66.1860351 20.95054159 63.37430102 20 60.5625 C 19.0028964 57.62139417 18.00494623 54.68057664 17.0068512 51.73980713 C 16.33210776 49.75174798 15.65765988 47.76358848 14.98350525 45.77532959 C 12.78944548 39.30883 10.57638281 32.84915944 8.34765625 26.39453125 C 8.06578461 25.57725052 7.78391296 24.75996979 7.49349976 23.91792297 C 5.88577127 19.25679747 5.88577127 19.25679747 4.2722168 14.59768677 C 3.54472121 12.50092234 2.82083519 10.40294385 2.09765625 8.3046875 C 1.69039307 7.12890137 1.28312988 5.95311523 0.86352539 4.74169922 C 0 2 0 2 0 0 Z" stroke-linecap="round"/>
</g>
<g transform="matrix(1.7756 0 0 1.7756 717.5079 613.6377)" id="svg">
<path style="stroke: none; stroke-width: 1; stroke-dasharray: none; stroke-linecap: butt; stroke-dashoffset: 0; stroke-linejoin: miter; stroke-miterlimit: 4; is-custom-font: none; font-file-url: none; fill: rgb(29,118,232); fill-rule: nonzero; opacity: 1;" transform=" translate(-22.5, -43)" d="M 0 0 C 14.85 0 29.7 0 45 0 C 45 4.29 45 8.58 45 13 C 34.44 13 23.88 13 13 13 C 13 20.92 13 28.84 13 37 C 19.6 37 26.2 37 33 37 C 33 41.29 33 45.58 33 50 C 26.4 50 19.8 50 13 50 C 13 61.88 13 73.76 13 86 C 8.71 86 4.42 86 0 86 C 0 57.62 0 29.24 0 0 Z" stroke-linecap="round"/>
</g>
<g transform="matrix(1.7756 0 0 1.7756 621.6272 613.6377)" id="svg">
<path style="stroke: none; stroke-width: 1; stroke-dasharray: none; stroke-linecap: butt; stroke-dashoffset: 0; stroke-linejoin: miter; stroke-miterlimit: 4; is-custom-font: none; font-file-url: none; fill: rgb(21,112,228); fill-rule: nonzero; opacity: 1;" transform=" translate(-22.5, -43)" d="M 0 0 C 14.85 0 29.7 0 45 0 C 45 4.29 45 8.58 45 13 C 34.44 13 23.88 13 13 13 C 13 20.92 13 28.84 13 37 C 19.6 37 26.2 37 33 37 C 33 41.29 33 45.58 33 50 C 26.4 50 19.8 50 13 50 C 13 61.88 13 73.76 13 86 C 8.71 86 4.42 86 0 86 C 0 57.62 0 29.24 0 0 Z" stroke-linecap="round"/>
</g>
<g transform="matrix(1.7756 0 0 1.7756 406.7836 614.5255)" id="svg">
<path style="stroke: none; stroke-width: 1; stroke-dasharray: none; stroke-linecap: butt; stroke-dashoffset: 0; stroke-linejoin: miter; stroke-miterlimit: 4; is-custom-font: none; font-file-url: none; fill: rgb(18,113,230); fill-rule: nonzero; opacity: 1;" transform=" translate(-26.5, -43.5)" d="M 0 0 C 17.49 0 34.98 0 53 0 C 53 4.29 53 8.58 53 13 C 46.4 13 39.8 13 33 13 C 33 37.42 33 61.84 33 87 C 28.71 87 24.42 87 20 87 C 20 62.58 20 38.16 20 13 C 13.4 13 6.8 13 0 13 C 0 8.71 0 4.42 0 0 Z" stroke-linecap="round"/>
</g>
<g transform="matrix(1.7756 0 0 1.7756 302.426 614.5255)" id="svg">
<path style="stroke: none; stroke-width: 1; stroke-dasharray: none; stroke-linecap: butt; stroke-dashoffset: 0; stroke-linejoin: miter; stroke-miterlimit: 4; is-custom-font: none; font-file-url: none; fill: rgb(28,122,234); fill-rule: nonzero; opacity: 1;" transform=" translate(-4.7258, -43.5)" d="M 0 0 C 0.34428984 4.05496924 0.53971045 7.95756875 0 12 C -2.875 14.5625 -2.875 14.5625 -6 16 C -8.09637701 19.14456551 -8.36556445 21.16094676 -8.65625 24.8671875 C -7.57752544 28.37304232 -4.99738565 30.13590424 -2 32 C 1.01683136 33.34182079 4.11172077 34.35627534 7.25 35.375 C 15.77114795 38.34114503 24.32431596 41.4918546 29.5625 49.3125 C 32.43538285 56.68206905 32.67266427 63.10879785 30.078125 70.609375 C 26.65800983 78.19310863 21.6385004 83.14459984 13.875 86.25 C 11 87 11 87 7 87 C 6.52957048 82.90334297 6.28603054 79.0760197 7 75 C 8.89736681 73.03765488 10.559173 72.13583957 13.0546875 71.0625 C 15.52858289 69.71129609 16.05018185 68.62512554 17 66 C 17.49634799 63.85253703 17.49634799 63.85253703 17.5625 61.625 C 17.62566406 60.89539063 17.68882812 60.16578125 17.75390625 59.4140625 C 16.48209264 55.34162306 13.5073299 53.26355941 10 51 C 6.74445847 49.5339013 3.41480806 48.46958751 0 47.4375 C -7.3800854 45.17390664 -13.86133818 43.0423205 -18.77734375 36.7109375 C -22.36167657 29.49399801 -23.60956613 23.11664831 -21.1484375 15.29296875 C -17.94525705 8.0258893 -13.2416393 4.12081965 -6.25 0.625 C -4 0 -4 0 0 0 Z" stroke-linecap="round"/>
</g>
<g transform="matrix(1.7756 0 0 1.7756 543.0117 614.5255)" id="svg">
<path style="stroke: none; stroke-width: 1; stroke-dasharray: none; stroke-linecap: butt; stroke-dashoffset: 0; stroke-linejoin: miter; stroke-miterlimit: 4; is-custom-font: none; font-file-url: none; fill: rgb(21,113,228); fill-rule: nonzero; opacity: 1;" transform=" translate(-1.2239, -43.5)" d="M 0 0 C 4.29 0 8.58 0 13 0 C 13.09058992 8.85830079 13.16388177 17.71629084 13.20724869 26.57495117 C 13.2280691 30.68897802 13.25628411 34.80266983 13.30175781 38.91650391 C 13.34541523 42.89117701 13.36917877 46.8655291 13.37950897 50.84042358 C 13.38686487 52.35221404 13.401229 53.86398814 13.42292023 55.37564087 C 13.55160917 64.72078702 13.41063558 71.76468676 7.140625 79.20703125 C 1.52089757 83.97915517 -3.38965567 87 -11 87 C -11 82.71 -11 78.42 -11 74 C -8.98177083 73.08854167 -6.96354167 72.17708333 -4.9453125 71.265625 C -2.52819407 69.69304192 -2.03630217 68.68543678 -1 66 C -0.67268934 62.92808782 -0.67268934 62.92808782 -0.68115234 59.48730469 C -0.67110672 58.84298492 -0.6610611 58.19866516 -0.65071106 57.53482056 C -0.61992177 55.41384744 -0.60285622 53.2930003 -0.5859375 51.171875 C -0.56722238 49.69784464 -0.5476487 48.22382495 -0.5272522 46.74981689 C -0.47596115 42.87669166 -0.43631938 39.00353171 -0.39910889 35.13024902 C -0.35905017 31.17528719 -0.30796637 27.22046942 -0.2578125 23.265625 C -0.16108901 15.51050808 -0.07769231 7.75533521 0 0 Z" stroke-linecap="round"/>
</g>
<g transform="matrix(1.7756 0 0 1.7756 487.3692 614.5255)" id="svg">
<path style="stroke: none; stroke-width: 1; stroke-dasharray: none; stroke-linecap: butt; stroke-dashoffset: 0; stroke-linejoin: miter; stroke-miterlimit: 4; is-custom-font: none; font-file-url: none; fill: rgb(20,113,230); fill-rule: nonzero; opacity: 1;" transform=" translate(-11.886, -43.5)" d="M 0 0 C 4.29 0 8.58 0 13 0 C 13.0093457 1.97315186 13.01869141 3.94630371 13.02832031 5.97924805 C 13.06386989 12.50534029 13.1176818 19.031083 13.18390274 25.5569334 C 13.22337856 29.51282577 13.25556627 33.46849551 13.27099609 37.42456055 C 13.2861624 41.24386903 13.32060631 45.0625655 13.36830902 48.88160133 C 13.38312331 50.33715298 13.39104105 51.79279202 13.39188385 53.24841881 C 13.39425536 55.29086595 13.42134398 57.33162418 13.45410156 59.3737793 C 13.46298401 60.53515915 13.47186646 61.696539 13.48101807 62.89311218 C 14.11128446 66.66620496 15.33584624 68.29883057 18 71 C 21.11662908 72.80979141 21.11662908 72.80979141 24 74 C 24 78.29 24 82.58 24 87 C 15.01640634 86.25136719 9.35148671 82.9805452 3.4453125 76.1953125 C 0.28521389 71.39537893 -0.24804584 66.72433155 -0.22705078 61.07666016 C -0.22734283 60.4125412 -0.22763489 59.74842224 -0.22793579 59.06417847 C -0.22655261 56.88900263 -0.21103988 54.71417782 -0.1953125 52.5390625 C -0.19157876 51.02306302 -0.18873349 49.50706111 -0.18673706 47.99105835 C -0.17912902 44.01590218 -0.1595051 40.04089394 -0.1373291 36.0657959 C -0.11680948 32.0035197 -0.1077223 27.94121942 -0.09765625 23.87890625 C -0.07625629 15.91919564 -0.04109748 7.95963331 0 0 Z" stroke-linecap="round"/>
</g>
<g transform="matrix(1.7756 0 0 1.7756 273.9608 670.6498)" id="svg">
<path style="stroke: none; stroke-width: 1; stroke-dasharray: none; stroke-linecap: butt; stroke-dashoffset: 0; stroke-linejoin: miter; stroke-miterlimit: 4; is-custom-font: none; font-file-url: none; fill: rgb(43,134,242); fill-rule: nonzero; opacity: 1;" transform=" translate(1.3056, -11.1098)" d="M 0 0 C 0.61875 1.36125 0.61875 1.36125 1.25 2.75 C 3.07302749 6.13562247 3.53835858 6.43954403 6.6875 8.125 C 8.546875 9.30078125 8.546875 9.30078125 10 11 C 10.6172814 15.0602216 10.40947656 18.92473326 10 23 C 2.98322856 22.74484467 -1.79537133 20.79247576 -7 16 C -13 8.06570842 -13 8.06570842 -13 3 C -11.40084119 2.30093058 -9.79544955 1.61610532 -8.1875 0.9375 C -7.29417969 0.55464844 -6.40085937 0.17179688 -5.48046875 -0.22265625 C -3 -1 -3 -1 0 0 Z" stroke-linecap="round"/>
</g>
<g transform="matrix(1.7756 0 0 1.7756 325.1069 556.8185)" id="svg">
<path style="stroke: none; stroke-width: 1; stroke-dasharray: none; stroke-linecap: butt; stroke-dashoffset: 0; stroke-linejoin: miter; stroke-miterlimit: 4; is-custom-font: none; font-file-url: none; fill: rgb(18,115,230); fill-rule: nonzero; opacity: 1;" transform=" translate(-10.5, -11)" d="M 0 0 C 6.03559418 0.37722464 10.37813768 2.02239728 15 6 C 21 13.2611465 21 13.2611465 21 18 C 17.04 19.32 13.08 20.64 9 22 C 6 17 6 17 6 15 C 4.02 14.34 2.04 13.68 0 13 C 0 8.71 0 4.42 0 0 Z" stroke-linecap="round"/>
</g>
<g transform="matrix(1.7756 0 0 1.7756 -369.3442 817.8266)" id="622220">
<path style="stroke: none; stroke-width: 1; stroke-dasharray: none; stroke-linecap: butt; stroke-dashoffset: 0; stroke-linejoin: miter; stroke-miterlimit: 4; is-custom-font: none; font-file-url: none; fill: rgb(254,254,254); fill-rule: nonzero; opacity: 1;" transform=" translate(-256, -158)" d="M 0 0 C 168.96 0 337.92 0 512 0 C 512 104.28 512 208.56 512 316 C 343.04 316 174.08 316 0 316 C 0 211.72 0 107.44 0 0 Z" stroke-linecap="round"/>
</g>
<g transform="matrix(1.7756 0 0 1.7756 -554.5672 760.3499)" id="812278">
<path style="stroke: none; stroke-width: 1; stroke-dasharray: none; stroke-linecap: butt; stroke-dashoffset: 0; stroke-linejoin: miter; stroke-miterlimit: 4; is-custom-font: none; font-file-url: none; fill: rgb(12,110,231); fill-rule: nonzero; opacity: 1;" transform=" translate(-34.6863, -45.6311)" d="M 0 0 C 42.13191432 0 42.13191432 0 56.015625 12.80078125 C 65.60046319 23.42334799 69.73688634 35.60494074 69.34765625 49.76953125 C 68.06731182 61.66666429 62.11125465 72.88374557 53.484375 81.109375 C 36.80952577 93.79904014 22.14002392 91 0 91 C 0 60.97 0 30.94 0 0 Z" stroke-linecap="round"/>
</g>
<g transform="matrix(1.7756 0 0 1.7756 -167.6401 760.9279)" id="710795">
<path style="stroke: none; stroke-width: 1; stroke-dasharray: none; stroke-linecap: butt; stroke-dashoffset: 0; stroke-linejoin: miter; stroke-miterlimit: 4; is-custom-font: none; font-file-url: none; fill: rgb(19,115,232); fill-rule: nonzero; opacity: 1;" transform=" translate(18.3963, -41.9567)" d="M 0 0 C 6.19269522 4.48604693 9.76202247 10.74977786 12 18 C 12 19.98 12 21.96 12 24 C 8.04 24 4.08 24 0 24 C -0.5878125 21.89625 -0.5878125 21.89625 -1.1875 19.75 C -2.95578718 14.46174209 -5.40644149 12.48203344 -10.1875 9.75 C -17.21713204 7.87543146 -23.69375224 8.39642985 -30 12 C -32.99252009 15.19202143 -33.91945502 17.93277903 -34.25 22.3125 C -33.96456799 26.52262216 -33.53904962 28.6146005 -31 32 C -26.04085991 34.30856521 -21.15506574 35.16178091 -15.79858398 36.01586914 C -5.75185805 37.62944419 3.35177226 39.60816952 9.8828125 48.11328125 C 13.36893058 54.00067646 13.97399366 61.06319928 12.34765625 67.63671875 C 9.67675918 76.0391546 5.64588643 81.27596539 -2.1875 85.375 C -10.26795386 89.16014132 -20.34026062 89.22652315 -28.9921875 87.3515625 C -36.98997635 84.43648058 -42.93692154 79.52108751 -46.9375 72 C -48.77971969 67.95700779 -49.71162708 64.42171808 -50 60 C -46.04 60 -42.08 60 -38 60 C -37.29875 61.5675 -36.5975 63.135 -35.875 64.75 C -33.51722655 69.48564155 -31.70328317 71.64835842 -27 74 C -21.13419233 75.95526922 -14.43114791 75.76503887 -8.5625 73.8125 C -4.23649988 71.61155257 -2.14554943 69.29109886 0 65 C 0.27213555 61.394204 0.24111304 58.66306085 -1 55.25 C -5.76469791 49.88971485 -13.69091479 49.4552969 -20.4375 48.625 C -29.24041726 47.37482641 -35.28369513 45.47393716 -41.875 39.3125 C -45.82409893 33.15655167 -47.7851537 26.32810118 -47 19 C -45.47501882 12.09338234 -43.67115712 5.6047442 -37.66015625 1.33984375 C -26.61580787 -5.52030216 -11.49334735 -7.15141613 0 0 Z" stroke-linecap="round"/>
</g>
<g transform="matrix(1.7756 0 0 1.7756 -554.6211 760.1385)" id="339861">
<path style="stroke: none; stroke-width: 1; stroke-dasharray: none; stroke-linecap: butt; stroke-dashoffset: 0; stroke-linejoin: miter; stroke-miterlimit: 4; is-custom-font: none; font-file-url: none; fill: rgb(250,254,254); fill-rule: nonzero; opacity: 1;" transform=" translate(-22.6563, -33.5123)" d="M 0 0 C 24.37452652 0 24.37452652 0 34.18359375 8.109375 C 41.31217178 15.52922826 44.3841502 23.34882214 45.3125 33.375 C 44.44644166 43.42127677 41.27736518 51.97673018 33.890625 59.0078125 C 23.1169977 67.88676741 14.72881741 67 0 67 C 0 44.89 0 22.78 0 0 Z" stroke-linecap="round"/>
</g>
<g transform="matrix(1.7756 0 0 1.7756 -427.9453 760.117)" id="62409">
<path style="stroke: none; stroke-width: 1; stroke-dasharray: none; stroke-linecap: butt; stroke-dashoffset: 0; stroke-linejoin: miter; stroke-miterlimit: 4; is-custom-font: none; font-file-url: none; fill: rgb(8,109,229); fill-rule: nonzero; opacity: 1;" transform=" translate(-25, -45.5)" d="M 0 0 C 16.5 0 33 0 50 0 C 50 3.96 50 7.92 50 12 C 37.46 12 24.92 12 12 12 C 12 21.24 12 30.48 12 40 C 20.58 40 29.16 40 38 40 C 38 43.63 38 47.26 38 51 C 29.42 51 20.84 51 12 51 C 12 60.24 12 69.48 12 79 C 24.54 79 37.08 79 50 79 C 50 82.96 50 86.92 50 91 C 33.5 91 17 91 0 91 C 0 60.97 0 30.94 0 0 Z" stroke-linecap="round"/>
</g>
<g transform="matrix(1.7756 0 0 1.7756 -298.3284 760.181)" id="889960">
<path style="stroke: none; stroke-width: 1; stroke-dasharray: none; stroke-linecap: butt; stroke-dashoffset: 0; stroke-linejoin: miter; stroke-miterlimit: 4; is-custom-font: none; font-file-url: none; fill: rgb(10,109,230); fill-rule: nonzero; opacity: 1;" transform=" translate(-38, -45.5361)" d="M 0 0 C 4.29 0 8.58 0 13 0 C 13.54938232 1.59279785 14.09876465 3.1855957 14.66479492 4.82666016 C 16.50017596 10.14730898 18.33626587 15.46771284 20.17281628 20.78795815 C 21.28398188 24.00694002 22.39488129 27.2260132 23.50512695 30.4453125 C 24.78786292 34.16430839 26.07157916 37.88296473 27.35546875 41.6015625 C 27.74526413 42.73236237 28.13505951 43.86316223 28.53666687 45.02822876 C 29.10669182 46.67835464 29.10669182 46.67835464 29.68823242 48.36181641 C 30.24624039 49.97724335 30.24624039 49.97724335 30.81552124 51.62530518 C 31.66232592 54.03793382 32.52238075 56.44221285 33.40151978 58.84295654 C 33.74902141 59.796848 33.74902141 59.796848 34.10354328 60.77000999 C 34.75498893 62.55328726 35.41210068 64.33449167 36.0695343 66.11557007 C 37 69 37 69 37 72 C 37.66 72 38.32 72 39 72 C 39.10111084 71.36690918 39.20222168 70.73381836 39.30639648 70.08154297 C 40.26090771 65.84083875 41.68276138 61.80200762 43.09765625 57.6953125 C 43.56315384 56.33232529 43.56315384 56.33232529 44.03805542 54.94180298 C 45.04309389 52.00179374 46.05269168 49.06337397 47.0625 46.125 C 47.74899506 44.12019106 48.43527429 42.1153082 49.12133789 40.11035156 C 53.7050315 26.72549948 58.31554132 13.34995891 63 0 C 67.29 0 71.58 0 76 0 C 74.87513119 6.74921283 74.87513119 6.74921283 73.73168945 9.9777832 C 73.47614792 10.70732712 73.22060638 11.43687103 72.95732117 12.18852234 C 72.53952141 13.3578405 72.53952141 13.3578405 72.11328125 14.55078125 C 71.67245964 15.80439201 71.67245964 15.80439201 71.22273254 17.08332825 C 70.25691707 19.8279084 69.28464374 22.57015572 68.3125 25.3125 C 66.9491838 29.1800631 65.58957785 33.04892548 64.23046875 36.91796875 C 63.88234131 37.90780762 63.53421387 38.89764648 63.17553711 39.91748047 C 60.72141146 46.90764365 58.30977338 53.91140671 55.92578125 60.92578125 C 55.44190697 62.3491555 55.44190697 62.3491555 54.94825745 63.80128479 C 53.69727732 67.48473624 52.4478586 71.16869915 51.20352173 74.85440063 C 50.34893727 77.38549658 49.49107464 79.91546178 48.6328125 82.4453125 C 48.37933548 83.20052689 48.12585846 83.95574127 47.86470032 84.73384094 C 46.11318024 89.88681976 46.11318024 89.88681976 45 91 C 42.64686445 91.07271741 40.29166332 91.08370868 37.9375 91.0625 C 36.00197266 91.04896484 36.00197266 91.04896484 34.02734375 91.03515625 C 33.02832031 91.02355469 32.02929688 91.01195312 31 91 C 28.38113359 84.60364362 25.95609664 78.17850176 23.75 71.62890625 C 23.30727501 70.3258831 23.30727501 70.3258831 22.85560608 68.99653625 C 21.90122724 66.1860351 20.95054159 63.37430102 20 60.5625 C 19.0028964 57.62139417 18.00494623 54.68057664 17.0068512 51.73980713 C 16.33210776 49.75174798 15.65765988 47.76358848 14.98350525 45.77532959 C 12.78944548 39.30883 10.57638281 32.84915944 8.34765625 26.39453125 C 8.06578461 25.57725052 7.78391296 24.75996979 7.49349976 23.91792297 C 5.88577127 19.25679747 5.88577127 19.25679747 4.2722168 14.59768677 C 3.54472121 12.50092234 2.82083519 10.40294385 2.09765625 8.3046875 C 1.69039307 7.12890137 1.28312988 5.95311523 0.86352539 4.74169922 C 0 2 0 2 0 0 Z" stroke-linecap="round"/>
</g>
<g transform="matrix(1.7756 0 0 1.7756 -151.8445 931.4593)" id="353942">
<path style="stroke: none; stroke-width: 1; stroke-dasharray: none; stroke-linecap: butt; stroke-dashoffset: 0; stroke-linejoin: miter; stroke-miterlimit: 4; is-custom-font: none; font-file-url: none; fill: rgb(29,118,232); fill-rule: nonzero; opacity: 1;" transform=" translate(-22.5, -43)" d="M 0 0 C 14.85 0 29.7 0 45 0 C 45 4.29 45 8.58 45 13 C 34.44 13 23.88 13 13 13 C 13 20.92 13 28.84 13 37 C 19.6 37 26.2 37 33 37 C 33 41.29 33 45.58 33 50 C 26.4 50 19.8 50 13 50 C 13 61.88 13 73.76 13 86 C 8.71 86 4.42 86 0 86 C 0 57.62 0 29.24 0 0 Z" stroke-linecap="round"/>
</g>
<g transform="matrix(1.7756 0 0 1.7756 -247.7252 931.4593)" id="780833">
<path style="stroke: none; stroke-width: 1; stroke-dasharray: none; stroke-linecap: butt; stroke-dashoffset: 0; stroke-linejoin: miter; stroke-miterlimit: 4; is-custom-font: none; font-file-url: none; fill: rgb(21,112,228); fill-rule: nonzero; opacity: 1;" transform=" translate(-22.5, -43)" d="M 0 0 C 14.85 0 29.7 0 45 0 C 45 4.29 45 8.58 45 13 C 34.44 13 23.88 13 13 13 C 13 20.92 13 28.84 13 37 C 19.6 37 26.2 37 33 37 C 33 41.29 33 45.58 33 50 C 26.4 50 19.8 50 13 50 C 13 61.88 13 73.76 13 86 C 8.71 86 4.42 86 0 86 C 0 57.62 0 29.24 0 0 Z" stroke-linecap="round"/>
</g>
<g transform="matrix(1.7756 0 0 1.7756 -462.5688 932.3471)" id="532236">
<path style="stroke: none; stroke-width: 1; stroke-dasharray: none; stroke-linecap: butt; stroke-dashoffset: 0; stroke-linejoin: miter; stroke-miterlimit: 4; is-custom-font: none; font-file-url: none; fill: rgb(18,113,230); fill-rule: nonzero; opacity: 1;" transform=" translate(-26.5, -43.5)" d="M 0 0 C 17.49 0 34.98 0 53 0 C 53 4.29 53 8.58 53 13 C 46.4 13 39.8 13 33 13 C 33 37.42 33 61.84 33 87 C 28.71 87 24.42 87 20 87 C 20 62.58 20 38.16 20 13 C 13.4 13 6.8 13 0 13 C 0 8.71 0 4.42 0 0 Z" stroke-linecap="round"/>
</g>
<g transform="matrix(1.7756 0 0 1.7756 -566.9264 932.3471)" id="407217">
<path style="stroke: none; stroke-width: 1; stroke-dasharray: none; stroke-linecap: butt; stroke-dashoffset: 0; stroke-linejoin: miter; stroke-miterlimit: 4; is-custom-font: none; font-file-url: none; fill: rgb(28,122,234); fill-rule: nonzero; opacity: 1;" transform=" translate(-4.7258, -43.5)" d="M 0 0 C 0.34428984 4.05496924 0.53971045 7.95756875 0 12 C -2.875 14.5625 -2.875 14.5625 -6 16 C -8.09637701 19.14456551 -8.36556445 21.16094676 -8.65625 24.8671875 C -7.57752544 28.37304232 -4.99738565 30.13590424 -2 32 C 1.01683136 33.34182079 4.11172077 34.35627534 7.25 35.375 C 15.77114795 38.34114503 24.32431596 41.4918546 29.5625 49.3125 C 32.43538285 56.68206905 32.67266427 63.10879785 30.078125 70.609375 C 26.65800983 78.19310863 21.6385004 83.14459984 13.875 86.25 C 11 87 11 87 7 87 C 6.52957048 82.90334297 6.28603054 79.0760197 7 75 C 8.89736681 73.03765488 10.559173 72.13583957 13.0546875 71.0625 C 15.52858289 69.71129609 16.05018185 68.62512554 17 66 C 17.49634799 63.85253703 17.49634799 63.85253703 17.5625 61.625 C 17.62566406 60.89539063 17.68882812 60.16578125 17.75390625 59.4140625 C 16.48209264 55.34162306 13.5073299 53.26355941 10 51 C 6.74445847 49.5339013 3.41480806 48.46958751 0 47.4375 C -7.3800854 45.17390664 -13.86133818 43.0423205 -18.77734375 36.7109375 C -22.36167657 29.49399801 -23.60956613 23.11664831 -21.1484375 15.29296875 C -17.94525705 8.0258893 -13.2416393 4.12081965 -6.25 0.625 C -4 0 -4 0 0 0 Z" stroke-linecap="round"/>
</g>
<g transform="matrix(1.7756 0 0 1.7756 -326.3407 932.3471)" id="854840">
<path style="stroke: none; stroke-width: 1; stroke-dasharray: none; stroke-linecap: butt; stroke-dashoffset: 0; stroke-linejoin: miter; stroke-miterlimit: 4; is-custom-font: none; font-file-url: none; fill: rgb(21,113,228); fill-rule: nonzero; opacity: 1;" transform=" translate(-1.2239, -43.5)" d="M 0 0 C 4.29 0 8.58 0 13 0 C 13.09058992 8.85830079 13.16388177 17.71629084 13.20724869 26.57495117 C 13.2280691 30.68897802 13.25628411 34.80266983 13.30175781 38.91650391 C 13.34541523 42.89117701 13.36917877 46.8655291 13.37950897 50.84042358 C 13.38686487 52.35221404 13.401229 53.86398814 13.42292023 55.37564087 C 13.55160917 64.72078702 13.41063558 71.76468676 7.140625 79.20703125 C 1.52089757 83.97915517 -3.38965567 87 -11 87 C -11 82.71 -11 78.42 -11 74 C -8.98177083 73.08854167 -6.96354167 72.17708333 -4.9453125 71.265625 C -2.52819407 69.69304192 -2.03630217 68.68543678 -1 66 C -0.67268934 62.92808782 -0.67268934 62.92808782 -0.68115234 59.48730469 C -0.67110672 58.84298492 -0.6610611 58.19866516 -0.65071106 57.53482056 C -0.61992177 55.41384744 -0.60285622 53.2930003 -0.5859375 51.171875 C -0.56722238 49.69784464 -0.5476487 48.22382495 -0.5272522 46.74981689 C -0.47596115 42.87669166 -0.43631938 39.00353171 -0.39910889 35.13024902 C -0.35905017 31.17528719 -0.30796637 27.22046942 -0.2578125 23.265625 C -0.16108901 15.51050808 -0.07769231 7.75533521 0 0 Z" stroke-linecap="round"/>
</g>
<g transform="matrix(1.7756 0 0 1.7756 -381.9832 932.3471)" id="764382">
<path style="stroke: none; stroke-width: 1; stroke-dasharray: none; stroke-linecap: butt; stroke-dashoffset: 0; stroke-linejoin: miter; stroke-miterlimit: 4; is-custom-font: none; font-file-url: none; fill: rgb(20,113,230); fill-rule: nonzero; opacity: 1;" transform=" translate(-11.886, -43.5)" d="M 0 0 C 4.29 0 8.58 0 13 0 C 13.0093457 1.97315186 13.01869141 3.94630371 13.02832031 5.97924805 C 13.06386989 12.50534029 13.1176818 19.031083 13.18390274 25.5569334 C 13.22337856 29.51282577 13.25556627 33.46849551 13.27099609 37.42456055 C 13.2861624 41.24386903 13.32060631 45.0625655 13.36830902 48.88160133 C 13.38312331 50.33715298 13.39104105 51.79279202 13.39188385 53.24841881 C 13.39425536 55.29086595 13.42134398 57.33162418 13.45410156 59.3737793 C 13.46298401 60.53515915 13.47186646 61.696539 13.48101807 62.89311218 C 14.11128446 66.66620496 15.33584624 68.29883057 18 71 C 21.11662908 72.80979141 21.11662908 72.80979141 24 74 C 24 78.29 24 82.58 24 87 C 15.01640634 86.25136719 9.35148671 82.9805452 3.4453125 76.1953125 C 0.28521389 71.39537893 -0.24804584 66.72433155 -0.22705078 61.07666016 C -0.22734283 60.4125412 -0.22763489 59.74842224 -0.22793579 59.06417847 C -0.22655261 56.88900263 -0.21103988 54.71417782 -0.1953125 52.5390625 C -0.19157876 51.02306302 -0.18873349 49.50706111 -0.18673706 47.99105835 C -0.17912902 44.01590218 -0.1595051 40.04089394 -0.1373291 36.0657959 C -0.11680948 32.0035197 -0.1077223 27.94121942 -0.09765625 23.87890625 C -0.07625629 15.91919564 -0.04109748 7.95963331 0 0 Z" stroke-linecap="round"/>
</g>
<g transform="matrix(1.7756 0 0 1.7756 -595.3916 988.4714)" id="684459">
<path style="stroke: none; stroke-width: 1; stroke-dasharray: none; stroke-linecap: butt; stroke-dashoffset: 0; stroke-linejoin: miter; stroke-miterlimit: 4; is-custom-font: none; font-file-url: none; fill: rgb(43,134,242); fill-rule: nonzero; opacity: 1;" transform=" translate(1.3056, -11.1098)" d="M 0 0 C 0.61875 1.36125 0.61875 1.36125 1.25 2.75 C 3.07302749 6.13562247 3.53835858 6.43954403 6.6875 8.125 C 8.546875 9.30078125 8.546875 9.30078125 10 11 C 10.6172814 15.0602216 10.40947656 18.92473326 10 23 C 2.98322856 22.74484467 -1.79537133 20.79247576 -7 16 C -13 8.06570842 -13 8.06570842 -13 3 C -11.40084119 2.30093058 -9.79544955 1.61610532 -8.1875 0.9375 C -7.29417969 0.55464844 -6.40085937 0.17179688 -5.48046875 -0.22265625 C -3 -1 -3 -1 0 0 Z" stroke-linecap="round"/>
</g>
<g transform="matrix(1.7756 0 0 1.7756 -544.2455 874.6401)" id="634716">
<path style="stroke: none; stroke-width: 1; stroke-dasharray: none; stroke-linecap: butt; stroke-dashoffset: 0; stroke-linejoin: miter; stroke-miterlimit: 4; is-custom-font: none; font-file-url: none; fill: rgb(18,115,230); fill-rule: nonzero; opacity: 1;" transform=" translate(-10.5, -11)" d="M 0 0 C 6.03559418 0.37722464 10.37813768 2.02239728 15 6 C 21 13.2611465 21 13.2611465 21 18 C 17.04 19.32 13.08 20.64 9 22 C 6 17 6 17 6 15 C 4.02 14.34 2.04 13.68 0 13 C 0 8.71 0 4.42 0 0 Z" stroke-linecap="round"/>
</g>
<g transform="matrix(1.7756 0 0 1.7756 314.7313 442.5279)" id="svg">
<path style="stroke: none; stroke-width: 1; stroke-dasharray: none; stroke-linecap: butt; stroke-dashoffset: 0; stroke-linejoin: miter; stroke-miterlimit: 4; is-custom-font: none; font-file-url: none; fill: rgb(250,254,254); fill-rule: nonzero; opacity: 1;" transform=" translate(-22.6563, -33.5123)" d="M 0 0 C 24.37452652 0 24.37452652 0 34.18359375 8.109375 C 41.31217178 15.52922826 44.3841502 23.34882214 45.3125 33.375 C 44.44644166 43.42127677 41.27736518 51.97673018 33.890625 59.0078125 C 23.1169977 67.88676741 14.72881741 67 0 67 C 0 44.89 0 22.78 0 0 Z" stroke-linecap="round"/>
</g>
</svg>